PathFileType  4	(X/Y/Z) D:\Research_projects\MuscleProsody\BulkSports2Dtrack\RetrackedSports2D\p1_sample60_cam2\p1_sample60_cam2_Sports2D\pose-3d
DataRate	CameraRate	NumFrames	NumMarkers	Units	OrigDataRate	OrigDataStartFrame	OrigNumFrames
60.0	60.0	16	22	m	60.0	390	780
Frame#	Time	Hip			RHip			RKnee			RAnkle			RBigToe			RSmallToe			RHeel			LHip			LKnee			LAnkle			LBigToe			LSmallToe			LHeel			Neck			Head			Nose			RShoulder			RElbow			RWrist			LShoulder			LElbow			LWrist			
		X1	Y1	Z1	X2	Y2	Z2	X3	Y3	Z3	X4	Y4	Z4	X5	Y5	Z5	X6	Y6	Z6	X7	Y7	Z7	X8	Y8	Z8	X9	Y9	Z9	X10	Y10	Z10	X11	Y11	Z11	X12	Y12	Z12	X13	Y13	Z13	X14	Y14	Z14	X15	Y15	Z15	X16	Y16	Z16	X17	Y17	Z17	X18	Y18	Z18	X19	Y19	Z19	X20	Y20	Z20	X21	Y21	Z21	X22	Y22	Z22	

391	6.5000000	0.9276086	0.8719422	0.0301000	0.8311866	0.8520215	0.0301000	0.8039113	0.4583681	0.1290000	0.7687237	0.1212406	0.0230000	0.7552071	-0.0025679	0.2179000	0.7095866	0.0212011	0.1804000	0.7814491	0.0925724	-0.0119000	1.0176473	0.8696528	0.0301000	0.9805984	0.4624540	0.1290000	0.9356322	0.1155063	0.0230000	0.9167134	-0.0046375	0.2179000	0.9673460	0.0104223	0.1804000	0.9182123	0.0923818	-0.0119000	0.7650670	1.3953772	0.0008000	0.6164076	1.6771117	0.0655000	0.6544421	1.4726896	0.1076000	0.6154727	1.2512546	-0.0127500	0.4720039	1.0347659	0.0702000	0.2026607	0.8982921	0.1076000	0.9691719	1.4553428	-0.0127500	1.2068823	1.5396698	0.0702000	1.3686212	1.7648043	0.1076000
392	6.5166667	0.9249594	0.8727475	0.0301000	0.8283115	0.8532671	0.0301000	0.8023831	0.4591078	0.1290000	0.7686673	0.1222274	0.0230000	0.7555675	-0.0025639	0.2179000	0.7094542	0.0210396	0.1804000	0.7811997	0.0929087	-0.0119000	1.0152496	0.8707147	0.0301000	0.9786867	0.4640432	0.1290000	0.9354604	0.1170322	0.0230000	0.9163550	-0.0043449	0.2179000	0.9675007	0.0105599	0.1804000	0.9184214	0.0932430	-0.0119000	0.7616545	1.3968744	0.0008000	0.6125381	1.6784863	0.0655000	0.6506801	1.4749852	0.1076000	0.6123817	1.2516703	-0.0127500	0.4738314	1.0335118	0.0702000	0.2072554	0.8957417	0.1076000	0.9656460	1.4555384	-0.0127500	1.2059966	1.5335109	0.0702000	1.3735981	1.7551083	0.1076000
393	6.5333333	0.9214550	0.8734706	0.0301000	0.8245400	0.8546474	0.0301000	0.7998200	0.4596718	0.1290000	0.7683846	0.1231530	0.0230000	0.7559606	-0.0025891	0.2179000	0.7093187	0.0208102	0.1804000	0.7807639	0.0933504	-0.0119000	1.0121249	0.8717291	0.0301000	0.9761956	0.4654478	0.1290000	0.9351507	0.1185439	0.0230000	0.9158043	-0.0040079	0.2179000	0.9675013	0.0106479	0.1804000	0.9185614	0.0942975	-0.0119000	0.7590364	1.3991809	0.0008000	0.6105286	1.6809805	0.0655000	0.6481033	1.4782634	0.1076000	0.6096637	1.2536291	-0.0127500	0.4753450	1.0340231	0.0702000	0.2110868	0.8964272	0.1076000	0.9629451	1.4555394	-0.0127500	1.2066006	1.5250333	0.0702000	1.3818931	1.7417312	0.1076000
394	6.5500000	0.9172335	0.8741364	0.0301000	0.8200342	0.8561552	0.0301000	0.7963773	0.4601403	0.1290000	0.7678809	0.1240421	0.0230000	0.7563624	-0.0026622	0.2179000	0.7091387	0.0204810	0.1804000	0.7801541	0.0938730	-0.0119000	1.0083555	0.8727153	0.0301000	0.9731983	0.4666789	0.1290000	0.9347074	0.1200453	0.0230000	0.9151006	-0.0036424	0.2179000	0.9673795	0.0106690	0.1804000	0.9186086	0.0954903	-0.0119000	0.7571973	1.4022694	0.0008000	0.6103097	1.6845316	0.0655000	0.6466647	1.4824885	0.1076000	0.6073439	1.2570345	-0.0127500	0.4767317	1.0360274	0.0702000	0.2144293	0.8999408	0.1076000	0.9610469	1.4553473	-0.0127500	1.2083389	1.5142652	0.0702000	1.3926328	1.7245592	0.1076000
395	6.5666667	0.9124433	0.8747605	0.0301000	0.8149762	0.8577612	0.0301000	0.7922518	0.4605950	0.1290000	0.7671665	0.1249108	0.0230000	0.7567440	-0.0027806	0.2179000	0.7088959	0.0200292	0.1804000	0.7793946	0.0944572	-0.0119000	1.0040319	0.8736805	0.0301000	0.9697789	0.4677336	0.1290000	0.9341374	0.1215223	0.0230000	0.9142903	-0.0032934	0.2179000	0.9671756	0.0105909	0.1804000	0.9185577	0.0967555	-0.0119000	0.7561237	1.4060716	0.0008000	0.6117845	1.6890254	0.0655000	0.6463010	1.4876012	0.1076000	0.6054763	1.2617697	-0.0127500	0.4782210	1.0392441	0.0702000	0.2176520	0.9058272	0.1076000	0.9599212	1.4549475	-0.0127500	1.2107761	1.5012212	0.0702000	1.4047903	1.7034597	0.1076000
396	6.5833333	0.9072311	0.8753493	0.0301000	0.8095480	0.8594190	0.0301000	0.7876588	0.4611052	0.1290000	0.7662615	0.1257546	0.0230000	0.7570810	-0.0029306	0.2179000	0.7086010	0.0194501	0.1804000	0.7785170	0.0950753	-0.0119000	0.9992489	0.8746129	0.0301000	0.9660312	0.4686074	0.1290000	0.9334569	0.1229328	0.0230000	0.9134245	-0.0030273	0.2179000	0.9669277	0.0103796	0.1804000	0.9184280	0.0980225	-0.0119000	0.7557979	1.4104940	0.0008000	0.6148305	1.6943101	0.0655000	0.6469402	1.4935211	0.1076000	0.6041285	1.2676892	-0.0127500	0.4800573	1.0433942	0.0702000	0.2211926	0.9136022	0.1076000	0.9595251	1.4543091	-0.0127500	1.2134390	1.4859308	0.0702000	1.4172731	1.6783468	0.1076000
397	6.6000000	0.9017331	0.8758982	0.0301000	0.8039163	0.8610685	0.0301000	0.7828094	0.4617062	0.1290000	0.7651977	0.1265387	0.0230000	0.7573540	-0.0031044	0.2179000	0.7082799	0.0187576	0.1804000	0.7775527	0.0956774	-0.0119000	0.9941038	0.8754795	0.0301000	0.9620585	0.4692997	0.1290000	0.9326922	0.1242064	0.0230000	0.9125582	-0.0029120	0.2179000	0.9666675	0.0100177	0.1804000	0.9182516	0.0992166	-0.0119000	0.7561944	1.4154295	0.0008000	0.6192981	1.7002068	0.0655000	0.6485024	1.5001354	0.1076000	0.6033678	1.2746079	-0.0127500	0.4824835	1.0482090	0.0702000	0.2255361	0.9227711	0.1076000	0.9598042	1.4533892	-0.0127500	1.2158566	1.4684774	0.0702000	1.4289802	1.6492171	0.1076000
398	6.6166667	0.8960667	0.8763896	0.0301000	0.7982189	0.8626401	0.0301000	0.7778926	0.4623838	0.1290000	0.7640179	0.1272031	0.0230000	0.7575499	-0.0033074	0.2179000	0.7079532	0.0179777	0.1804000	0.7765352	0.0961951	-0.0119000	0.9886943	0.8762271	0.0301000	0.9579671	0.4698025	0.1290000	0.9318730	0.1252568	0.0230000	0.9117366	-0.0029978	0.2179000	0.9664157	0.0095009	0.1804000	0.9180657	0.1002612	-0.0119000	0.7572809	1.4207611	0.0008000	0.6250106	1.7065179	0.0655000	0.6508977	1.5072985	0.1076000	0.6032482	1.2823079	-0.0127500	0.4857217	1.0534373	0.0702000	0.2311797	0.9328413	0.1076000	0.9607001	1.4521479	-0.0127500	1.2175905	1.4490157	0.0702000	1.4388593	1.6161378	0.1076000
399	6.6333333	0.8903274	0.8767947	0.0301000	0.7925596	0.8640624	0.0301000	0.7730647	0.4630843	0.1290000	0.7627714	0.1276880	0.0230000	0.7576659	-0.0035518	0.2179000	0.7076271	0.0171405	0.1804000	0.7755049	0.0965663	-0.0119000	0.9831177	0.8767909	0.0301000	0.9538574	0.4700914	0.1290000	0.9310272	0.1260048	0.0230000	0.9109829	-0.0033047	0.2179000	0.9661819	0.0088274	0.1804000	0.9179077	0.1010865	-0.0119000	0.7590171	1.4263721	0.0008000	0.6317782	1.7130452	0.0655000	0.6540309	1.5148485	0.1076000	0.6037937	1.2905538	-0.0127500	0.4899379	1.0588510	0.0702000	0.2385653	0.9433221	0.1076000	0.9621570	1.4505599	-0.0127500	1.2182578	1.4277679	0.0702000	1.4459771	1.5792223	0.1076000
400	6.6500000	0.8846018	0.8770813	0.0301000	0.7870200	0.8652770	0.0301000	0.7684496	0.4637386	0.1290000	0.7615076	0.1279607	0.0230000	0.7577124	-0.0038502	0.2179000	0.7073002	0.0162765	0.1804000	0.7745011	0.0967562	-0.0119000	0.9774795	0.8771143	0.0301000	0.9498179	0.4701311	0.1290000	0.9301774	0.1263996	0.0230000	0.9103045	-0.0038150	0.2179000	0.9659645	0.0080054	0.1804000	0.9178086	0.1016370	-0.0119000	0.7613453	1.4321576	0.0008000	0.6394147	1.7196084	0.0655000	0.6578143	1.5226275	0.1076000	0.6049849	1.2990946	-0.0127500	0.4952069	1.0642434	0.0702000	0.2480079	0.9537155	0.1076000	0.9641213	1.4486175	-0.0127500	1.2175472	1.4050280	0.0702000	1.4495735	1.5386491	0.1076000
401	6.6666667	0.8789808	0.8772229	0.0301000	0.7816787	0.8662446	0.0301000	0.7641429	0.4642742	0.1290000	0.7602754	0.1280215	0.0230000	0.7577081	-0.0042148	0.2179000	0.7069722	0.0154187	0.1804000	0.7735513	0.0967613	-0.0119000	0.9719001	0.8771636	0.0301000	0.9459218	0.4698860	0.1290000	0.9293412	0.1264263	0.0230000	0.9097022	-0.0044767	0.2179000	0.9657520	0.0070674	0.1804000	0.9177865	0.1018781	-0.0119000	0.7641881	1.4380275	0.0008000	0.6477509	1.7260546	0.0655000	0.6621746	1.5304908	0.1076000	0.6067627	1.3076614	-0.0127500	0.5015032	1.0694370	0.0702000	0.2596692	0.9635178	0.1076000	0.9665410	1.4463312	-0.0127500	1.2152284	1.3811710	0.0702000	1.4490772	1.4947103	0.1076000
402	6.6833333	0.8735580	0.8772019	0.0301000	0.7766143	0.8669373	0.0301000	0.7602114	0.4646289	0.1290000	0.7591256	0.1278973	0.0230000	0.7576747	-0.0046535	0.2179000	0.7066469	0.0146062	0.1804000	0.7726747	0.0966085	-0.0119000	0.9665025	0.8769218	0.0301000	0.9422214	0.4693361	0.1290000	0.9285321	0.1261068	0.0230000	0.9091741	-0.0052247	0.2179000	0.9655317	0.0060678	0.1804000	0.9178457	0.1018102	-0.0119000	0.7674601	1.4439047	0.0008000	0.6566513	1.7322662	0.0655000	0.6670503	1.5383104	0.1076000	0.6090486	1.3159928	-0.0127500	0.5087163	1.0743084	0.0702000	0.2735816	0.9722556	0.1076000	0.9693711	1.4437229	-0.0127500	1.2111649	1.3566246	0.0702000	1.4441076	1.4478155	0.1076000
403	6.7000000	0.8684188	0.8770020	0.0301000	0.7718934	0.8673282	0.0301000	0.7566907	0.4647764	0.1290000	0.7581074	0.1276322	0.0230000	0.7576280	-0.0051656	0.2179000	0.7063327	0.0138820	0.1804000	0.7718892	0.0963510	-0.0119000	0.9613902	0.8763754	0.0301000	0.9387461	0.4684991	0.1290000	0.9277636	0.1255002	0.0230000	0.9087208	-0.0060030	0.2179000	0.9652977	0.0050645	0.1804000	0.9179789	0.1014766	-0.0119000	0.7710801	1.4497247	0.0008000	0.6660238	1.7381701	0.0655000	0.6723903	1.5459800	0.1076000	0.6117644	1.3238729	-0.0127500	0.5166667	1.0788092	0.0702000	0.2896658	0.9795457	0.1076000	0.9725796	1.4408156	-0.0127500	1.2053291	1.3318161	0.0702000	1.4344864	1.3984566	0.1076000
404	6.7166667	0.8636367	0.8766022	0.0301000	0.7675650	0.8673914	0.0301000	0.7535913	0.4647449	0.1290000	0.7572561	0.1272771	0.0230000	0.7575695	-0.0057469	0.2179000	0.7060396	0.0132800	0.1804000	0.7712133	0.0960520	-0.0119000	0.9566403	0.8755156	0.0301000	0.9355084	0.4674482	0.1290000	0.9270481	0.1246981	0.0230000	0.9083491	-0.0067710	0.2179000	0.9650479	0.0041044	0.1804000	0.9181697	0.1009549	-0.0119000	0.7749742	1.4554376	0.0008000	0.6758065	1.7437364	0.0655000	0.6781539	1.5534151	0.1076000	0.6148420	1.3311450	-0.0127500	0.5251113	1.0829656	0.0702000	0.3077098	0.9851464	0.1076000	0.9761361	1.4376386	-0.0127500	1.1978075	1.3071513	0.0702000	1.4202593	1.3472041	0.1076000
405	6.7333333	0.8592749	0.8759867	0.0301000	0.7636664	0.8671164	0.0301000	0.7509096	0.4646154	0.1290000	0.7565900	0.1268833	0.0230000	0.7574862	-0.0063899	0.2179000	0.7057773	0.0128182	0.1804000	0.7706646	0.0957685	-0.0119000	0.9523121	0.8743555	0.0301000	0.9325140	0.4663094	0.1290000	0.9263941	0.1238150	0.0230000	0.9080685	-0.0074956	0.2179000	0.9647815	0.0032223	0.1804000	0.9183969	0.1003426	-0.0119000	0.7790761	1.4610071	0.0008000	0.6859458	1.7489633	0.0655000	0.6843116	1.5605472	0.1076000	0.6182267	1.3377073	-0.0127500	0.5337498	1.0868694	0.0702000	0.3273486	0.9889957	0.1076000	0.9799940	1.4342392	-0.0127500	1.1887887	1.2830271	0.0702000	1.4017185	1.2947381	0.1076000
406	6.7500000	0.8553795	0.8751621	0.0301000	0.7602225	0.8665283	0.0301000	0.7486342	0.4644981	0.1290000	0.7561134	0.1265007	0.0230000	0.7573626	-0.0070727	0.2179000	0.7055547	0.0125079	0.1804000	0.7702565	0.0955534	-0.0119000	0.9484471	0.8729474	0.0301000	0.9297656	0.4652397	0.1290000	0.9258040	0.1229740	0.0230000	0.9078822	-0.0081412	0.2179000	0.9645048	0.0024492	0.1804000	0.9186423	0.0997480	-0.0119000	0.7833334	1.4664066	0.0008000	0.6963869	1.7538670	0.0655000	0.6908427	1.5673255	0.1076000	0.6218734	1.3435196	-0.0127500	0.5422458	1.0906692	0.0702000	0.3481017	0.9912553	0.1076000	0.9840945	1.4306812	-0.0127500	1.1785403	1.2598126	0.0702000	1.3794013	1.2418374	0.1076000
